<?xml version="1.0" encoding="UTF-8" standalone="no"?>
<!DOCTYPE svg PUBLIC "-//W3C//DTD SVG 1.1//EN"
 "http://www.w3.org/Graphics/SVG/1.1/DTD/svg11.dtd">
<!-- Generated by graphviz version 2.38.0 (20140413.2041)
 -->
<!-- Title: RBTREE Pages: 1 -->
<svg width="743pt" height="361pt"
 viewBox="0.00 0.00 743.42 361.00" xmlns="http://www.w3.org/2000/svg" xmlns:xlink="http://www.w3.org/1999/xlink">
<g id="graph0" class="graph" transform="scale(1 1) rotate(0) translate(4 357)">
<title>RBTREE</title>
<polygon fill="white" stroke="none" points="-4,4 -4,-357 739.417,-357 739.417,4 -4,4"/>
<!-- 5 -->
<g id="node1" class="node"><title>5</title>
<ellipse fill="red" stroke="black" cx="421.708" cy="-253" rx="21.5" ry="21.5"/>
<text text-anchor="middle" x="421.708" y="-246.8" font-family="Helvetica,sans-Serif" font-size="24.00" fill="white">5</text>
</g>
<!-- 3 -->
<g id="node3" class="node"><title>3</title>
<ellipse fill="black" stroke="black" cx="257.708" cy="-174" rx="21.5" ry="21.5"/>
<text text-anchor="middle" x="257.708" y="-167.8" font-family="Helvetica,sans-Serif" font-size="24.00" fill="white">3</text>
</g>
<!-- 5&#45;&gt;3 -->
<g id="edge2" class="edge"><title>5&#45;&gt;3</title>
<path fill="none" stroke="black" d="M402.574,-243.016C373.889,-229.548 319.554,-204.037 286.195,-188.375"/>
<polygon fill="black" stroke="black" points="287.513,-185.127 276.974,-184.045 284.538,-191.464 287.513,-185.127"/>
</g>
<!-- 6 -->
<g id="node10" class="node"><title>6</title>
<ellipse fill="black" stroke="black" cx="421.708" cy="-174" rx="21.5" ry="21.5"/>
<text text-anchor="middle" x="421.708" y="-167.8" font-family="Helvetica,sans-Serif" font-size="24.00" fill="white">6</text>
</g>
<!-- 5&#45;&gt;6 -->
<g id="edge9" class="edge"><title>5&#45;&gt;6</title>
<path fill="none" stroke="black" d="M421.708,-231.365C421.708,-223.511 421.708,-214.382 421.708,-205.788"/>
<polygon fill="black" stroke="black" points="425.208,-205.692 421.708,-195.692 418.208,-205.692 425.208,-205.692"/>
</g>
<!-- 10 -->
<g id="node2" class="node"><title>10</title>
<ellipse fill="black" stroke="black" cx="531.708" cy="-332" rx="21.5" ry="21.5"/>
<text text-anchor="middle" x="531.708" y="-325.8" font-family="Helvetica,sans-Serif" font-size="24.00" fill="white">10</text>
</g>
<!-- 10&#45;&gt;5 -->
<g id="edge1" class="edge"><title>10&#45;&gt;5</title>
<path fill="none" stroke="black" d="M514.521,-318.969C496.544,-306.385 468.123,-286.49 447.464,-272.029"/>
<polygon fill="black" stroke="black" points="449.338,-269.068 439.138,-266.201 445.323,-274.803 449.338,-269.068"/>
</g>
<!-- 15 -->
<g id="node13" class="node"><title>15</title>
<ellipse fill="black" stroke="black" cx="586.708" cy="-253" rx="21.5" ry="21.5"/>
<text text-anchor="middle" x="586.708" y="-246.8" font-family="Helvetica,sans-Serif" font-size="24.00" fill="white">15</text>
</g>
<!-- 10&#45;&gt;15 -->
<g id="edge12" class="edge"><title>10&#45;&gt;15</title>
<path fill="none" stroke="black" d="M543.915,-313.911C551.178,-303.743 560.528,-290.653 568.634,-279.303"/>
<polygon fill="black" stroke="black" points="571.572,-281.213 574.536,-271.041 565.876,-277.144 571.572,-281.213"/>
</g>
<!-- 2 -->
<g id="node4" class="node"><title>2</title>
<ellipse fill="red" stroke="black" cx="148.708" cy="-95" rx="21.5" ry="21.5"/>
<text text-anchor="middle" x="148.708" y="-88.8" font-family="Helvetica,sans-Serif" font-size="24.00" fill="white">2</text>
</g>
<!-- 3&#45;&gt;2 -->
<g id="edge3" class="edge"><title>3&#45;&gt;2</title>
<path fill="none" stroke="black" d="M240.196,-160.629C222.292,-147.981 194.306,-128.211 173.999,-113.866"/>
<polygon fill="black" stroke="black" points="176.005,-110.998 165.818,-108.087 171.966,-116.715 176.005,-110.998"/>
</g>
<!-- 4 -->
<g id="node7" class="node"><title>4</title>
<ellipse fill="red" stroke="black" cx="257.708" cy="-95" rx="21.5" ry="21.5"/>
<text text-anchor="middle" x="257.708" y="-88.8" font-family="Helvetica,sans-Serif" font-size="24.00" fill="white">4</text>
</g>
<!-- 3&#45;&gt;4 -->
<g id="edge6" class="edge"><title>3&#45;&gt;4</title>
<path fill="none" stroke="black" d="M257.708,-152.365C257.708,-144.511 257.708,-135.382 257.708,-126.788"/>
<polygon fill="black" stroke="black" points="261.208,-126.692 257.708,-116.692 254.208,-126.692 261.208,-126.692"/>
</g>
<!-- null0 -->
<g id="node5" class="node"><title>null0</title>
<polygon fill="black" stroke="black" points="17.2083,-1 17.2083,-37 60.2083,-37 60.2083,-1 17.2083,-1"/>
<text text-anchor="middle" x="38.7083" y="-12.8" font-family="Helvetica,sans-Serif" font-size="24.00" fill="white">NIL</text>
</g>
<!-- 2&#45;&gt;null0 -->
<g id="edge4" class="edge"><title>2&#45;&gt;null0</title>
<path fill="none" stroke="black" d="M131.035,-82.1106C114.318,-70.8645 88.8893,-53.7581 68.9485,-40.3434"/>
<polygon fill="black" stroke="black" points="70.7533,-37.3392 60.5024,-34.6615 66.846,-43.1473 70.7533,-37.3392"/>
</g>
<!-- null1 -->
<g id="node6" class="node"><title>null1</title>
<polygon fill="black" stroke="black" points="127.208,-1 127.208,-37 170.208,-37 170.208,-1 127.208,-1"/>
<text text-anchor="middle" x="148.708" y="-12.8" font-family="Helvetica,sans-Serif" font-size="24.00" fill="white">NIL</text>
</g>
<!-- 2&#45;&gt;null1 -->
<g id="edge5" class="edge"><title>2&#45;&gt;null1</title>
<path fill="none" stroke="black" d="M148.708,-73.3869C148.708,-65.2387 148.708,-55.7618 148.708,-47.0735"/>
<polygon fill="black" stroke="black" points="152.208,-47.009 148.708,-37.009 145.208,-47.0091 152.208,-47.009"/>
</g>
<!-- null2 -->
<g id="node8" class="node"><title>null2</title>
<polygon fill="black" stroke="black" points="236.208,-1 236.208,-37 279.208,-37 279.208,-1 236.208,-1"/>
<text text-anchor="middle" x="257.708" y="-12.8" font-family="Helvetica,sans-Serif" font-size="24.00" fill="white">NIL</text>
</g>
<!-- 4&#45;&gt;null2 -->
<g id="edge7" class="edge"><title>4&#45;&gt;null2</title>
<path fill="none" stroke="black" d="M257.708,-73.3869C257.708,-65.2387 257.708,-55.7618 257.708,-47.0735"/>
<polygon fill="black" stroke="black" points="261.208,-47.009 257.708,-37.009 254.208,-47.0091 261.208,-47.009"/>
</g>
<!-- null3 -->
<g id="node9" class="node"><title>null3</title>
<polygon fill="black" stroke="black" points="346.208,-1 346.208,-37 389.208,-37 389.208,-1 346.208,-1"/>
<text text-anchor="middle" x="367.708" y="-12.8" font-family="Helvetica,sans-Serif" font-size="24.00" fill="white">NIL</text>
</g>
<!-- 4&#45;&gt;null3 -->
<g id="edge8" class="edge"><title>4&#45;&gt;null3</title>
<path fill="none" stroke="black" d="M275.382,-82.1106C292.099,-70.8645 317.527,-53.7581 337.468,-40.3434"/>
<polygon fill="black" stroke="black" points="339.571,-43.1473 345.914,-34.6615 335.663,-37.3392 339.571,-43.1473"/>
</g>
<!-- null4 -->
<g id="node11" class="node"><title>null4</title>
<polygon fill="black" stroke="black" points="346.208,-77 346.208,-113 389.208,-113 389.208,-77 346.208,-77"/>
<text text-anchor="middle" x="367.708" y="-88.8" font-family="Helvetica,sans-Serif" font-size="24.00" fill="white">NIL</text>
</g>
<!-- 6&#45;&gt;null4 -->
<g id="edge10" class="edge"><title>6&#45;&gt;null4</title>
<path fill="none" stroke="black" d="M409.724,-155.911C402.593,-145.743 393.413,-132.653 385.454,-121.303"/>
<polygon fill="black" stroke="black" points="388.267,-119.219 379.659,-113.041 382.535,-123.238 388.267,-119.219"/>
</g>
<!-- null5 -->
<g id="node12" class="node"><title>null5</title>
<polygon fill="black" stroke="black" points="456.208,-77 456.208,-113 499.208,-113 499.208,-77 456.208,-77"/>
<text text-anchor="middle" x="477.708" y="-88.8" font-family="Helvetica,sans-Serif" font-size="24.00" fill="white">NIL</text>
</g>
<!-- 6&#45;&gt;null5 -->
<g id="edge11" class="edge"><title>6&#45;&gt;null5</title>
<path fill="none" stroke="black" d="M434.137,-155.911C441.532,-145.743 451.052,-132.653 459.306,-121.303"/>
<polygon fill="black" stroke="black" points="462.264,-123.187 465.315,-113.041 456.603,-119.07 462.264,-123.187"/>
</g>
<!-- 12 -->
<g id="node14" class="node"><title>12</title>
<ellipse fill="red" stroke="black" cx="586.708" cy="-174" rx="21.5" ry="21.5"/>
<text text-anchor="middle" x="586.708" y="-167.8" font-family="Helvetica,sans-Serif" font-size="24.00" fill="white">12</text>
</g>
<!-- 15&#45;&gt;12 -->
<g id="edge13" class="edge"><title>15&#45;&gt;12</title>
<path fill="none" stroke="black" d="M586.708,-231.365C586.708,-223.511 586.708,-214.382 586.708,-205.788"/>
<polygon fill="black" stroke="black" points="590.208,-205.692 586.708,-195.692 583.208,-205.692 590.208,-205.692"/>
</g>
<!-- null8 -->
<g id="node17" class="node"><title>null8</title>
<polygon fill="black" stroke="black" points="675.208,-156 675.208,-192 718.208,-192 718.208,-156 675.208,-156"/>
<text text-anchor="middle" x="696.708" y="-167.8" font-family="Helvetica,sans-Serif" font-size="24.00" fill="white">NIL</text>
</g>
<!-- 15&#45;&gt;null8 -->
<g id="edge16" class="edge"><title>15&#45;&gt;null8</title>
<path fill="none" stroke="black" d="M603.896,-239.969C620.709,-228.2 646.659,-210.034 666.85,-195.901"/>
<polygon fill="black" stroke="black" points="668.922,-198.723 675.107,-190.121 664.908,-192.988 668.922,-198.723"/>
</g>
<!-- null6 -->
<g id="node15" class="node"><title>null6</title>
<polygon fill="black" stroke="black" points="565.208,-77 565.208,-113 608.208,-113 608.208,-77 565.208,-77"/>
<text text-anchor="middle" x="586.708" y="-88.8" font-family="Helvetica,sans-Serif" font-size="24.00" fill="white">NIL</text>
</g>
<!-- 12&#45;&gt;null6 -->
<g id="edge14" class="edge"><title>12&#45;&gt;null6</title>
<path fill="none" stroke="black" d="M586.708,-152.365C586.708,-143.432 586.708,-132.85 586.708,-123.281"/>
<polygon fill="black" stroke="black" points="590.208,-123.05 586.708,-113.05 583.208,-123.05 590.208,-123.05"/>
</g>
<!-- null7 -->
<g id="node16" class="node"><title>null7</title>
<polygon fill="black" stroke="black" points="675.208,-77 675.208,-113 718.208,-113 718.208,-77 675.208,-77"/>
<text text-anchor="middle" x="696.708" y="-88.8" font-family="Helvetica,sans-Serif" font-size="24.00" fill="white">NIL</text>
</g>
<!-- 12&#45;&gt;null7 -->
<g id="edge15" class="edge"><title>12&#45;&gt;null7</title>
<path fill="none" stroke="black" d="M603.896,-160.969C620.709,-149.2 646.659,-131.034 666.85,-116.901"/>
<polygon fill="black" stroke="black" points="668.922,-119.723 675.107,-111.121 664.908,-113.988 668.922,-119.723"/>
</g>
</g>
</svg>
